<svg xmlns="http://www.w3.org/2000/svg" viewBox="0 0 1200 840"><path d="M598.03 424.04a2.365 2.365 0 1 1-1.51-4.48l3.75-1.24c-.98-2.1-2.59-3.94-4.74-5.21-5.68-3.36-13.01-1.48-16.37 4.21-3.36 5.68-1.48 13.01 4.21 16.37 5.68 3.36 13.01 1.48 16.37-4.21 1.22-2.06 1.74-4.33 1.65-6.55l-3.36 1.11z" fill="#262626"/><path d="M612.67 412.07c-3.24-1.92-7.42-.84-9.34 2.4-1.92 3.24-.84 7.42 2.4 9.34.26.15.53.28.8.4-.05-.54.05-1.1.35-1.6a2.67 2.67 0 0 1 3.64-.94 2.66 2.66 0 0 1 1.29 2.56c1.31-.55 2.47-1.5 3.25-2.82 1.93-3.24.85-7.42-2.39-9.34z" fill="#404040"/><path d="M598.24 443.05a2.67 2.67 0 0 1-.94-3.64c.25-.43.61-.75 1.02-.97-.27-.22-.56-.43-.87-.62-3.24-1.92-7.42-.84-9.34 2.4-1.92 3.24-.84 7.42 2.4 9.34 3.24 1.92 7.42.84 9.34-2.4.75-1.26 1.03-2.66.92-4.02-.78.38-1.73.38-2.53-.09z" fill="#787878"/><circle cx="608.94" cy="434.79" r="8.58" fill="#b3b3b3"/><path d="M577.66 392.76v2.08c-.2.04-.43.05-.65.05s-.43-.02-.67-.05v-2.17l-2.1-3.51c.31-.05.62-.09.94-.09.2 0 .42.01.6.04l1.07 1.9.2.44.2-.44 1.07-1.9c.19-.03.39-.04.58-.04.28 0 .57.04.85.09l-2.09 3.6zm3.71-.78c0-1.78 1.25-3.03 2.99-3.03 1.74 0 2.99 1.2 2.99 3.03 0 1.77-1.25 3.02-2.99 3.02-1.74 0-2.99-1.21-2.99-3.02zm4.55 0c0-1.09-.61-1.78-1.55-1.78-.94 0-1.55.68-1.55 1.78 0 1.07.61 1.77 1.55 1.77.93 0 1.55-.7 1.55-1.77zm7.98-1.66h-1.62v4.52a3.71 3.71 0 0 1-1.33 0v-4.52h-1.62a3.03 3.03 0 0 1 0-1.19h4.56c.05.2.07.39.07.59s-.01.4-.06.6zm2.1 3.96c.04-.46.28-.85.61-1.06.37.3.97.54 1.63.54.64 0 .89-.2.89-.51 0-.29-.14-.46-1.15-.72-.96-.23-1.8-.6-1.81-1.75 0-1.09.87-1.79 2.18-1.79.99 0 1.64.32 1.98.59-.03.41-.25.86-.61 1.07-.33-.23-.83-.44-1.46-.44-.52 0-.81.2-.81.46 0 .28.12.41 1.15.66 1.07.27 1.79.72 1.81 1.74.03 1.23-.83 1.92-2.2 1.92-1.13-.01-1.84-.39-2.21-.71zm6.78-1.72v-3.41c.21-.04.43-.05.66-.05.22 0 .44.02.67.05v3.39c0 .77.43 1.22 1.15 1.22s1.14-.45 1.14-1.22v-3.39c.2-.04.41-.05.63-.05.21 0 .43.02.67.05v3.37c0 1.58-1.01 2.48-2.44 2.48-1.51 0-2.48-.83-2.48-2.44zm10.53.2v2.08c-.2.04-.43.05-.65.05s-.43-.02-.67-.05v-2.17l-2.09-3.51c.31-.05.62-.09.94-.09.19 0 .42.01.6.04l1.07 1.9.2.44.2-.44 1.07-1.9c.19-.03.39-.04.58-.04.28 0 .57.04.85.09l-2.1 3.6zm8.82 2.02c-.28.06-.56.11-.85.11-.16 0-.34-.02-.49-.04l-.41-1.13h-2.11l-.41 1.13c-.2.03-.41.04-.6.04-.26 0-.51-.03-.7-.1l2.13-5.64c.22-.04.46-.05.68-.05.23 0 .43.01.65.05l2.11 5.63zm-2.16-2.17l-.48-1.31-.18-.55-.16.55-.48 1.31h1.3zm-40.93 8.92c0 .15-.01.31-.05.47h-2.88v-4.47c.17-.03.34-.05.52-.05s.35.02.52.05v3.54h1.84c.03.16.05.31.05.46zm4.77-1.48v1.73c-.49.2-1.07.33-1.67.33-.95 0-1.5-.36-1.5-1.09 0-.7.6-1.05 1.44-1.04.26.01.49.03.7.1v-.13c0-.29-.19-.49-.68-.49-.39 0-.72.15-.9.29a.943.943 0 0 1-.45-.66c.19-.17.71-.48 1.43-.48.97-.01 1.63.41 1.63 1.44zm-1.53 1.34c.17 0 .33-.03.5-.08v-.61c-.17-.05-.36-.08-.57-.08-.33 0-.53.11-.53.36s.2.41.6.41zm6.93-1.07c0 1.12-.76 1.8-1.96 1.8-.55 0-1.08-.12-1.46-.32v-4.37c.17-.03.35-.04.52-.04.17 0 .35.01.52.04v1.26c.16-.06.34-.08.56-.08 1.04-.01 1.82.58 1.82 1.71zm-1.04.04c0-.5-.3-.86-.84-.86-.17 0-.34.03-.49.08v1.58c.18.06.34.08.49.08.53 0 .84-.35.84-.88zm2.65-.01c0-1.07.77-1.77 1.82-1.77s1.8.69 1.8 1.77c0 1.06-.77 1.76-1.82 1.76s-1.8-.67-1.8-1.76zm2.57 0c0-.54-.28-.9-.77-.9s-.77.36-.77.9.29.9.77.9.77-.36.77-.9zm5.03-1.66c-.01.34-.1.66-.29.9-.13-.03-.25-.05-.4-.05-.22 0-.4.04-.51.1V402c-.17.03-.35.04-.52.04-.17 0-.34-.01-.52-.04v-2.9c.23-.21.75-.51 1.47-.51.32 0 .58.03.77.1zm4.71 1.36v1.73c-.49.2-1.07.33-1.67.33-.95 0-1.5-.36-1.5-1.09 0-.7.6-1.05 1.44-1.04.26.01.49.03.7.1v-.13c0-.29-.19-.49-.68-.49-.39 0-.72.15-.9.29a.943.943 0 0 1-.45-.66c.19-.17.71-.48 1.43-.48.97-.01 1.63.41 1.63 1.44zm-1.53 1.34c.17 0 .33-.03.5-.08v-.61c-.17-.05-.36-.08-.57-.08-.33 0-.53.11-.53.36s.2.41.6.41zm6.11.35c-.24.19-.57.37-1.07.37-.76 0-1.33-.32-1.33-1.13v-1.38h-.56a2.903 2.903 0 0 1 0-.85h.56v-.87c.18-.03.36-.04.53-.04.17 0 .34.01.5.04v.87h1.16c.03.13.05.27.05.41 0 .15-.02.29-.05.44h-1.16v1.12c0 .38.17.5.48.5.2 0 .35-.1.46-.19.2.11.4.43.43.71zm1.57-1.39c0-1.07.77-1.77 1.82-1.77s1.8.69 1.8 1.77c0 1.06-.77 1.76-1.82 1.76s-1.8-.67-1.8-1.76zm2.58 0c0-.54-.28-.9-.77-.9s-.77.36-.77.9.29.9.77.9c.49 0 .77-.36.77-.9zm5.03-1.66c-.01.34-.1.66-.29.9-.13-.03-.25-.05-.4-.05-.22 0-.4.04-.51.1V402c-.17.03-.35.04-.52.04-.17 0-.34-.01-.52-.04v-2.9c.23-.21.75-.51 1.47-.51.31 0 .57.03.77.1zm4.98.07c-.29 2.11-1.09 3.66-2.58 4.73-.32-.11-.53-.42-.62-.72.37-.29.7-.59.91-.88-.68-1.04-.98-1.95-1.24-3.14.15-.03.47-.08.76-.08.13 0 .27.01.39.02.13.77.36 1.59.64 2.25.03.08.06.14.07.19a.53.53 0 0 1 .06-.19c.29-.67.45-1.48.54-2.25.13-.01.28-.02.41-.02.23.01.47.04.66.09zm1.65 2.71c0-.36.3-.66.65-.66.36 0 .66.3.66.66 0 .36-.3.66-.66.66-.35 0-.65-.3-.65-.66z" fill="#999"/></svg>