<?xml version="1.0" encoding="UTF-8" standalone="no"?>
<svg
   xmlns:dc="http://purl.org/dc/elements/1.1/"
   xmlns:cc="http://creativecommons.org/ns#"
   xmlns:rdf="http://www.w3.org/1999/02/22-rdf-syntax-ns#"
   xmlns:svg="http://www.w3.org/2000/svg"
   xmlns="http://www.w3.org/2000/svg"
   xmlns:sodipodi="http://sodipodi.sourceforge.net/DTD/sodipodi-0.dtd"
   xmlns:inkscape="http://www.inkscape.org/namespaces/inkscape"
   viewBox="0 0 50.59 61.561161"
   version="1.1"
   id="svg12"
   sodipodi:docname="428lab.svg"
   width="50.59"
   height="61.561161"
   inkscape:version="0.92.4 (5da689c313, 2019-01-14)">
  <metadata
     id="metadata18">
    <rdf:RDF>
      <cc:Work
         rdf:about="">
        <dc:format>image/svg+xml</dc:format>
        <dc:type
           rdf:resource="http://purl.org/dc/dcmitype/StillImage" />
        <dc:title></dc:title>
      </cc:Work>
    </rdf:RDF>
  </metadata>
  <defs
     id="defs16" />
  <sodipodi:namedview
     pagecolor="#ffffff"
     bordercolor="#666666"
     borderopacity="1"
     objecttolerance="10"
     gridtolerance="10"
     guidetolerance="10"
     inkscape:pageopacity="0"
     inkscape:pageshadow="2"
     inkscape:window-width="725"
     inkscape:window-height="480"
     id="namedview14"
     showgrid="false"
     fit-margin-top="0"
     fit-margin-left="0"
     fit-margin-right="0"
     fit-margin-bottom="0"
     inkscape:zoom="0.28095238"
     inkscape:cx="25.76"
     inkscape:cy="30.51116"
     inkscape:window-x="2545"
     inkscape:window-y="538"
     inkscape:window-maximized="0"
     inkscape:current-layer="svg12" />
  <path
     d="m 23.79,35.09 a 2.365,2.365 0 1 1 -1.51,-4.48 l 3.75,-1.24 C 25.05,27.27 23.44,25.43 21.29,24.16 15.61,20.8 8.28,22.68 4.92,28.37 1.56,34.05 3.44,41.38 9.13,44.74 c 5.68,3.36 13.01,1.48 16.37,-4.21 1.22,-2.06 1.74,-4.33 1.65,-6.55 z"
     id="path2"
     inkscape:connector-curvature="0"
     style="fill:#262626" />
  <path
     d="m 38.43,23.12 c -3.24,-1.92 -7.42,-0.84 -9.34,2.4 -1.92,3.24 -0.84,7.42 2.4,9.34 0.26,0.15 0.53,0.28 0.8,0.4 -0.05,-0.54 0.05,-1.1 0.35,-1.6 a 2.67,2.67 0 0 1 3.64,-0.94 2.66,2.66 0 0 1 1.29,2.56 c 1.31,-0.55 2.47,-1.5 3.25,-2.82 1.93,-3.24 0.85,-7.42 -2.39,-9.34 z"
     id="path4"
     inkscape:connector-curvature="0"
     style="fill:#404040" />
  <path
     d="m 24,54.1 a 2.67,2.67 0 0 1 -0.94,-3.64 c 0.25,-0.43 0.61,-0.75 1.02,-0.97 -0.27,-0.22 -0.56,-0.43 -0.87,-0.62 -3.24,-1.92 -7.42,-0.84 -9.34,2.4 -1.92,3.24 -0.84,7.42 2.4,9.34 3.24,1.92 7.42,0.84 9.34,-2.4 0.75,-1.26 1.03,-2.66 0.92,-4.02 C 25.75,54.57 24.8,54.57 24,54.1 Z"
     id="path6"
     inkscape:connector-curvature="0"
     style="fill:#787878" />
  <circle
     cx="34.700001"
     cy="45.840008"
     r="8.5799999"
     id="circle8"
     style="fill:#b3b3b3" />
  <path
     d="M 3.42,3.81 V 5.89 C 3.22,5.93 2.99,5.94 2.77,5.94 2.55,5.94 2.34,5.92 2.1,5.89 V 3.72 L 0,0.21 C 0.31,0.16 0.62,0.12 0.94,0.12 c 0.2,0 0.42,0.01 0.6,0.04 l 1.07,1.9 0.2,0.44 0.2,-0.44 1.07,-1.9 C 4.27,0.13 4.47,0.12 4.66,0.12 c 0.28,0 0.57,0.04 0.85,0.09 z M 7.13,3.03 C 7.13,1.25 8.38,0 10.12,0 c 1.74,0 2.99,1.2 2.99,3.03 0,1.77 -1.25,3.02 -2.99,3.02 -1.74,0 -2.99,-1.21 -2.99,-3.02 z m 4.55,0 c 0,-1.09 -0.61,-1.78 -1.55,-1.78 -0.94,0 -1.55,0.68 -1.55,1.78 0,1.07 0.61,1.77 1.55,1.77 0.93,0 1.55,-0.7 1.55,-1.77 z m 7.98,-1.66 h -1.62 v 4.52 a 3.71,3.71 0 0 1 -1.33,0 V 1.37 h -1.62 a 3.03,3.03 0 0 1 0,-1.19 h 4.56 c 0.05,0.2 0.07,0.39 0.07,0.59 0,0.2 -0.01,0.4 -0.06,0.6 z m 2.1,3.96 c 0.04,-0.46 0.28,-0.85 0.61,-1.06 0.37,0.3 0.97,0.54 1.63,0.54 0.64,0 0.89,-0.2 0.89,-0.51 0,-0.29 -0.14,-0.46 -1.15,-0.72 -0.96,-0.23 -1.8,-0.6 -1.81,-1.75 0,-1.09 0.87,-1.79 2.18,-1.79 0.99,0 1.64,0.32 1.98,0.59 -0.03,0.41 -0.25,0.86 -0.61,1.07 -0.33,-0.23 -0.83,-0.44 -1.46,-0.44 -0.52,0 -0.81,0.2 -0.81,0.46 0,0.28 0.12,0.41 1.15,0.66 1.07,0.27 1.79,0.72 1.81,1.74 0.03,1.23 -0.83,1.92 -2.2,1.92 C 22.84,6.03 22.13,5.65 21.76,5.33 Z M 28.54,3.61 V 0.2 c 0.21,-0.04 0.43,-0.05 0.66,-0.05 0.22,0 0.44,0.02 0.67,0.05 v 3.39 c 0,0.77 0.43,1.22 1.15,1.22 0.72,0 1.14,-0.45 1.14,-1.22 V 0.2 c 0.2,-0.04 0.41,-0.05 0.63,-0.05 0.21,0 0.43,0.02 0.67,0.05 v 3.37 c 0,1.58 -1.01,2.48 -2.44,2.48 -1.51,0 -2.48,-0.83 -2.48,-2.44 z m 10.53,0.2 v 2.08 c -0.2,0.04 -0.43,0.05 -0.65,0.05 -0.22,0 -0.43,-0.02 -0.67,-0.05 V 3.72 L 35.66,0.21 c 0.31,-0.05 0.62,-0.09 0.94,-0.09 0.19,0 0.42,0.01 0.6,0.04 l 1.07,1.9 0.2,0.44 0.2,-0.44 1.07,-1.9 c 0.19,-0.03 0.39,-0.04 0.58,-0.04 0.28,0 0.57,0.04 0.85,0.09 z m 8.82,2.02 C 47.61,5.89 47.33,5.94 47.04,5.94 46.88,5.94 46.7,5.92 46.55,5.9 L 46.14,4.77 H 44.03 L 43.62,5.9 c -0.2,0.03 -0.41,0.04 -0.6,0.04 -0.26,0 -0.51,-0.03 -0.7,-0.1 L 44.45,0.2 c 0.22,-0.04 0.46,-0.05 0.68,-0.05 0.23,0 0.43,0.01 0.65,0.05 z M 45.73,3.66 45.25,2.35 45.07,1.8 44.91,2.35 44.43,3.66 Z M 4.8,12.58 c 0,0.15 -0.01,0.31 -0.05,0.47 H 1.87 V 8.58 C 2.04,8.55 2.21,8.53 2.39,8.53 c 0.18,0 0.35,0.02 0.52,0.05 v 3.54 h 1.84 c 0.03,0.16 0.05,0.31 0.05,0.46 z M 9.57,11.1 v 1.73 c -0.49,0.2 -1.07,0.33 -1.67,0.33 -0.95,0 -1.5,-0.36 -1.5,-1.09 0,-0.7 0.6,-1.05 1.44,-1.04 0.26,0.01 0.49,0.03 0.7,0.1 V 11 c 0,-0.29 -0.19,-0.49 -0.68,-0.49 -0.39,0 -0.72,0.15 -0.9,0.29 A 0.943,0.943 0 0 1 6.51,10.14 C 6.7,9.97 7.22,9.66 7.94,9.66 8.91,9.65 9.57,10.07 9.57,11.1 Z m -1.53,1.34 c 0.17,0 0.33,-0.03 0.5,-0.08 V 11.75 C 8.37,11.7 8.18,11.67 7.97,11.67 c -0.33,0 -0.53,0.11 -0.53,0.36 0,0.25 0.2,0.41 0.6,0.41 z m 6.93,-1.07 c 0,1.12 -0.76,1.8 -1.96,1.8 -0.55,0 -1.08,-0.12 -1.46,-0.32 V 8.48 c 0.17,-0.03 0.35,-0.04 0.52,-0.04 0.17,0 0.35,0.01 0.52,0.04 v 1.26 c 0.16,-0.06 0.34,-0.08 0.56,-0.08 1.04,-0.01 1.82,0.58 1.82,1.71 z m -1.04,0.04 c 0,-0.5 -0.3,-0.86 -0.84,-0.86 -0.17,0 -0.34,0.03 -0.49,0.08 v 1.58 c 0.18,0.06 0.34,0.08 0.49,0.08 0.53,0 0.84,-0.35 0.84,-0.88 z m 2.65,-0.01 c 0,-1.07 0.77,-1.77 1.82,-1.77 1.05,0 1.8,0.69 1.8,1.77 0,1.06 -0.77,1.76 -1.82,1.76 -1.05,0 -1.8,-0.67 -1.8,-1.76 z m 2.57,0 c 0,-0.54 -0.28,-0.9 -0.77,-0.9 -0.49,0 -0.77,0.36 -0.77,0.9 0,0.54 0.29,0.9 0.77,0.9 0.48,0 0.77,-0.36 0.77,-0.9 z m 5.03,-1.66 c -0.01,0.34 -0.1,0.66 -0.29,0.9 -0.13,-0.03 -0.25,-0.05 -0.4,-0.05 -0.22,0 -0.4,0.04 -0.51,0.1 v 2.36 c -0.17,0.03 -0.35,0.04 -0.52,0.04 -0.17,0 -0.34,-0.01 -0.52,-0.04 v -2.9 c 0.23,-0.21 0.75,-0.51 1.47,-0.51 0.32,0 0.58,0.03 0.77,0.1 z m 4.71,1.36 v 1.73 c -0.49,0.2 -1.07,0.33 -1.67,0.33 -0.95,0 -1.5,-0.36 -1.5,-1.09 0,-0.7 0.6,-1.05 1.44,-1.04 0.26,0.01 0.49,0.03 0.7,0.1 V 11 c 0,-0.29 -0.19,-0.49 -0.68,-0.49 -0.39,0 -0.72,0.15 -0.9,0.29 a 0.943,0.943 0 0 1 -0.45,-0.66 c 0.19,-0.17 0.71,-0.48 1.43,-0.48 0.97,-0.01 1.63,0.41 1.63,1.44 z m -1.53,1.34 c 0.17,0 0.33,-0.03 0.5,-0.08 v -0.61 c -0.17,-0.05 -0.36,-0.08 -0.57,-0.08 -0.33,0 -0.53,0.11 -0.53,0.36 0,0.25 0.2,0.41 0.6,0.41 z m 6.11,0.35 c -0.24,0.19 -0.57,0.37 -1.07,0.37 -0.76,0 -1.33,-0.32 -1.33,-1.13 v -1.38 h -0.56 a 2.903,2.903 0 0 1 0,-0.85 h 0.56 V 8.93 c 0.18,-0.03 0.36,-0.04 0.53,-0.04 0.17,0 0.34,0.01 0.5,0.04 V 9.8 h 1.16 c 0.03,0.13 0.05,0.27 0.05,0.41 0,0.15 -0.02,0.29 -0.05,0.44 H 32.1 v 1.12 c 0,0.38 0.17,0.5 0.48,0.5 0.2,0 0.35,-0.1 0.46,-0.19 0.2,0.11 0.4,0.43 0.43,0.71 z m 1.57,-1.39 c 0,-1.07 0.77,-1.77 1.82,-1.77 1.05,0 1.8,0.69 1.8,1.77 0,1.06 -0.77,1.76 -1.82,1.76 -1.05,0 -1.8,-0.67 -1.8,-1.76 z m 2.58,0 c 0,-0.54 -0.28,-0.9 -0.77,-0.9 -0.49,0 -0.77,0.36 -0.77,0.9 0,0.54 0.29,0.9 0.77,0.9 0.49,0 0.77,-0.36 0.77,-0.9 z m 5.03,-1.66 c -0.01,0.34 -0.1,0.66 -0.29,0.9 -0.13,-0.03 -0.25,-0.05 -0.4,-0.05 -0.22,0 -0.4,0.04 -0.51,0.1 v 2.36 c -0.17,0.03 -0.35,0.04 -0.52,0.04 -0.17,0 -0.34,-0.01 -0.52,-0.04 v -2.9 c 0.23,-0.21 0.75,-0.51 1.47,-0.51 0.31,0 0.57,0.03 0.77,0.1 z m 4.98,0.07 c -0.29,2.11 -1.09,3.66 -2.58,4.73 -0.32,-0.11 -0.53,-0.42 -0.62,-0.72 0.37,-0.29 0.7,-0.59 0.91,-0.88 -0.68,-1.04 -0.98,-1.95 -1.24,-3.14 0.15,-0.03 0.47,-0.08 0.76,-0.08 0.13,0 0.27,0.01 0.39,0.02 0.13,0.77 0.36,1.59 0.64,2.25 0.03,0.08 0.06,0.14 0.07,0.19 a 0.53,0.53 0 0 1 0.06,-0.19 c 0.29,-0.67 0.45,-1.48 0.54,-2.25 0.13,-0.01 0.28,-0.02 0.41,-0.02 0.23,0.01 0.47,0.04 0.66,0.09 z m 1.65,2.71 c 0,-0.36 0.3,-0.66 0.65,-0.66 0.36,0 0.66,0.3 0.66,0.66 0,0.36 -0.3,0.66 -0.66,0.66 -0.35,0 -0.65,-0.3 -0.65,-0.66 z"
     id="path10"
     inkscape:connector-curvature="0"
     style="fill:#999999" />
</svg>
