<?xml version="1.0" encoding="UTF-8" standalone="no"?>
<svg
   xmlns:dc="http://purl.org/dc/elements/1.1/"
   xmlns:cc="http://creativecommons.org/ns#"
   xmlns:rdf="http://www.w3.org/1999/02/22-rdf-syntax-ns#"
   xmlns:svg="http://www.w3.org/2000/svg"
   xmlns="http://www.w3.org/2000/svg"
   xmlns:sodipodi="http://sodipodi.sourceforge.net/DTD/sodipodi-0.dtd"
   xmlns:inkscape="http://www.inkscape.org/namespaces/inkscape"
   height="448.00043"
   width="448.00043"
   aria-hidden="true"
   focusable="false"
   data-prefix="fab"
   data-icon="line"
   class="svg-inline--fa fa-line fa-w-14"
   role="img"
   viewBox="0 0 448.00043 448.00043"
   version="1.1"
   id="svg895"
   sodipodi:docname="line.svg"
   inkscape:version="1.0beta2 (2b71d25, 2019-12-03)">
  <metadata
     id="metadata901">
    <rdf:RDF>
      <cc:Work
         rdf:about="">
        <dc:format>image/svg+xml</dc:format>
        <dc:type
           rdf:resource="http://purl.org/dc/dcmitype/StillImage" />
        <dc:title></dc:title>
      </cc:Work>
    </rdf:RDF>
  </metadata>
  <defs
     id="defs899" />
  <sodipodi:namedview
     fit-margin-bottom="0"
     fit-margin-right="0"
     fit-margin-left="0"
     fit-margin-top="0"
     pagecolor="#ffffff"
     bordercolor="#666666"
     inkscape:document-rotation="0"
     borderopacity="1"
     objecttolerance="10"
     gridtolerance="10"
     guidetolerance="10"
     inkscape:pageopacity="0"
     inkscape:pageshadow="2"
     inkscape:window-width="1484"
     inkscape:window-height="950"
     id="namedview897"
     showgrid="false"
     inkscape:zoom="1.3125"
     inkscape:cx="224.00021"
     inkscape:cy="224.00021"
     inkscape:window-x="0"
     inkscape:window-y="25"
     inkscape:window-maximized="0"
     inkscape:current-layer="svg895" />
  <path
     inkscape:connector-curvature="0"
     fill="currentColor"
     d="m 272.10021,172.20021 v 71.1 c 0,1.8 -1.4,3.2 -3.2,3.2 h -11.4 c -1.1,0 -2.1,-0.6 -2.6,-1.3 l -32.6,-44 v 42.2 c 0,1.8 -1.4,3.2 -3.2,3.2 h -11.4 c -1.8,0 -3.2,-1.4 -3.2,-3.2 v -71.1 c 0,-1.8 1.4,-3.2 3.2,-3.2 h 11.3 c 1,0 2.1,0.5 2.6,1.4 l 32.6,44 v -42.2 c 0,-1.8 1.4,-3.2 3.2,-3.2 h 11.4 c 1.8,-0.1 3.3,1.4 3.3,3.1 z m -82,-3.2 h -11.4 c -1.8,0 -3.2,1.4 -3.2,3.2 v 71.1 c 0,1.8 1.4,3.2 3.2,3.2 h 11.4 c 1.8,0 3.2,-1.4 3.2,-3.2 v -71.1 c 0,-1.7 -1.4,-3.2 -3.2,-3.2 z m -27.5,59.6 h -31.1 v -56.4 c 0,-1.8 -1.4,-3.2 -3.2,-3.2 h -11.4 c -1.8,0 -3.2,1.4 -3.2,3.2 v 71.1 c 0,0.9 0.3,1.6 0.9,2.2 0.6,0.5 1.3,0.9 2.2,0.9 h 45.7 c 1.8,0 3.2,-1.4 3.2,-3.2 v -11.4 c 0,-1.7 -1.4,-3.2 -3.1,-3.2 z m 169.5,-59.6 h -45.7 c -1.7,0 -3.2,1.4 -3.2,3.2 v 71.1 c 0,1.7 1.4,3.2 3.2,3.2 h 45.7 c 1.8,0 3.2,-1.4 3.2,-3.2 v -11.4 c 0,-1.8 -1.4,-3.2 -3.2,-3.2 h -31.1 v -12 h 31.1 c 1.8,0 3.2,-1.4 3.2,-3.2 v -11.5 c 0,-1.8 -1.4,-3.2 -3.2,-3.2 h -31.1 v -12 h 31.1 c 1.8,0 3.2,-1.4 3.2,-3.2 v -11.4 c -0.1,-1.7 -1.5,-3.2 -3.2,-3.2 z m 115.9,-87.300004 V 367.00021 c -0.1,44.8 -36.8,81.1 -81.7,81 H 81.000206 c -44.8,-0.1 -81.09999988,-36.9 -80.99999988367,-81.7 V 81.000206 C 0.10020612,36.200206 36.900206,-0.09979388 81.700206,2.0611633e-4 H 367.00021 c 44.8,0.10000000367 81.1,36.79999988367 81,81.69999988367 z m -61.6,122.600004 c 0,-73 -73.2,-132.400004 -163.1,-132.400004 -89.9,0 -163.100004,59.400004 -163.100004,132.400004 0,65.4 58.000004,120.2 136.400004,130.6 19.1,4.1 16.9,11.1 12.6,36.8 -0.7,4.1 -3.3,16.1 14.1,8.8 17.4,-7.3 93.9,-55.3 128.2,-94.7 23.6,-26 34.9,-52.3 34.9,-81.5 z"
     id="path893"
     style="fill:#ffffff;fill-opacity:1" />
</svg>
