<?xml version="1.0" encoding="UTF-8" standalone="no"?>
<svg
   xmlns:dc="http://purl.org/dc/elements/1.1/"
   xmlns:cc="http://creativecommons.org/ns#"
   xmlns:rdf="http://www.w3.org/1999/02/22-rdf-syntax-ns#"
   xmlns:svg="http://www.w3.org/2000/svg"
   xmlns="http://www.w3.org/2000/svg"
   xmlns:sodipodi="http://sodipodi.sourceforge.net/DTD/sodipodi-0.dtd"
   xmlns:inkscape="http://www.inkscape.org/namespaces/inkscape"
   id="レイヤー_1"
   viewBox="0 0 167.97 73.089996"
   version="1.1"
   sodipodi:docname="torii.svg"
   width="167.97"
   height="73.089996"
   inkscape:version="0.92.4 (5da689c313, 2019-01-14)">
  <metadata
     id="metadata39">
    <rdf:RDF>
      <cc:Work
         rdf:about="">
        <dc:format>image/svg+xml</dc:format>
        <dc:type
           rdf:resource="http://purl.org/dc/dcmitype/StillImage" />
        <dc:title></dc:title>
      </cc:Work>
    </rdf:RDF>
  </metadata>
  <defs
     id="defs37" />
  <sodipodi:namedview
     pagecolor="#ffffff"
     bordercolor="#666666"
     borderopacity="1"
     objecttolerance="10"
     gridtolerance="10"
     guidetolerance="10"
     inkscape:pageopacity="0"
     inkscape:pageshadow="2"
     inkscape:window-width="2497"
     inkscape:window-height="1417"
     id="namedview35"
     showgrid="false"
     fit-margin-top="0"
     fit-margin-left="0"
     fit-margin-right="0"
     fit-margin-bottom="0"
     inkscape:zoom="1.5893067"
     inkscape:cx="149.80796"
     inkscape:cy="-139.06608"
     inkscape:window-x="1975"
     inkscape:window-y="-8"
     inkscape:window-maximized="1"
     inkscape:current-layer="レイヤー_1" />
  <style
     id="style2">.st4{fill:#d2371d}.st5{fill:#6d726c}</style>
  <path
     d="m 106.41,25.34 c -0.55,-0.02 -0.97,-0.02 -1.25,-0.02 -1.07,0 -1.89,0.27 -2.52,0.8 -0.75,0.67 -1.27,2.02 -1.55,4.04 -0.12,0.95 -0.2,1.92 -0.2,2.92 0,0.87 0.05,1.52 0.12,1.92 0.17,0.8 0.55,1.27 1.1,1.42 0.32,0.1 0.72,0.15 1.22,0.15 0.52,0 1.15,-0.17 1.87,-0.42 0.25,-0.1 0.45,-0.12 0.62,-0.12 0.32,0 0.65,0.2 0.97,0.6 0.32,0.4 0.47,0.77 0.47,1.1 0,0.62 -0.5,1.02 -1.47,1.22 -0.42,0.07 -1.15,0.12 -2.17,0.12 -3.14,0 -4.71,-1.57 -4.71,-4.74 0,-3.07 0.82,-5.68 2.44,-7.83 -0.4,0.12 -1.05,0.37 -1.92,0.75 -0.05,0.02 -0.52,0.25 -1.42,0.72 -0.77,0.4 -1.22,0.6 -1.3,0.6 -0.47,0 -1,-0.2 -1.62,-0.62 -0.57,-0.37 -1,-0.75 -1.27,-1.15 -0.3,-0.4 -0.45,-0.85 -0.45,-1.35 0,-0.15 0.07,-0.22 0.22,-0.22 0.08,0 0.35,0.15 0.82,0.42 0.47,0.3 0.92,0.45 1.32,0.45 1.02,0 2.72,-0.4 5.11,-1.25 0.72,-0.25 1.72,-0.62 2.99,-1.07 0.52,-0.17 0.92,-0.35 1.17,-0.5 0.55,-0.35 0.92,-0.5 1.1,-0.5 0.32,0 0.72,0.05 1.2,0.17 0.55,0.12 0.92,0.25 1.1,0.42 0.27,0.22 0.4,0.55 0.4,0.92 0,0.72 -0.4,1.1 -1.22,1.1 -0.25,0 -0.65,-0.02 -1.17,-0.05 z m 0.32,5.76 c -0.32,0.05 -0.57,-0.05 -0.82,-0.3 -0.4,-0.4 -0.95,-0.92 -1.62,-1.6 -0.52,-0.55 -0.77,-0.87 -0.7,-0.95 0.07,-0.12 0.37,-0.15 0.85,-0.07 0.5,0.07 1.02,0.27 1.6,0.55 0.77,0.37 1.15,0.92 1.12,1.62 -0.03,0.45 -0.15,0.7 -0.43,0.75 z m 2.37,-1.64 c -0.32,0.05 -0.57,-0.05 -0.82,-0.3 -0.4,-0.4 -0.95,-0.92 -1.62,-1.6 -0.52,-0.55 -0.75,-0.87 -0.7,-0.95 0.08,-0.12 0.37,-0.12 0.85,-0.05 0.5,0.07 1.02,0.27 1.6,0.55 0.77,0.37 1.15,0.92 1.12,1.62 -0.01,0.45 -0.15,0.7 -0.43,0.73 z m 18.22,10.99 c -0.17,-0.3 -0.37,-0.6 -0.55,-0.9 -0.72,-1.12 -1.45,-1.99 -2.12,-2.62 -1.5,1.12 -3.22,1.67 -5.14,1.67 -1.52,0 -2.29,-0.52 -2.29,-1.6 0,-0.55 0.3,-1.12 0.92,-1.75 0.52,-0.55 1.07,-0.92 1.65,-1.15 0.47,-0.17 1.07,-0.27 1.79,-0.27 0.57,0 1.17,0.1 1.79,0.27 0,-0.32 -0.02,-0.85 -0.05,-1.52 -0.02,-0.67 -0.05,-1.2 -0.05,-1.55 v -2.64 c -0.37,0.02 -1.05,0.12 -2.02,0.17 -0.67,0.02 -1.7,0.02 -3.02,0.17 -0.72,0.07 -1.4,0.42 -2.07,1 -0.75,0.62 -1.12,1.75 -1.12,3.39 0,0.62 0.07,1.45 0.22,2.42 0.15,1.07 0.22,1.8 0.22,2.17 0,0.92 -0.35,1.4 -1.07,1.4 -0.42,0 -0.8,-0.25 -1.1,-0.72 -0.22,-0.35 -0.32,-0.95 -0.32,-1.77 0,-1.4 0.1,-3.07 0.27,-4.99 0.17,-1.67 0.37,-3.32 0.55,-4.99 0.02,-0.3 0.05,-0.57 0.05,-0.82 0,-0.9 -0.12,-1.6 -0.37,-2.07 0,-0.02 -0.1,-0.2 -0.3,-0.5 -0.17,-0.25 -0.25,-0.4 -0.25,-0.47 0,-0.17 0.1,-0.27 0.32,-0.27 0.27,0 0.72,0.27 1.35,0.8 0.47,0.42 0.85,0.8 1.12,1.15 0.35,0.45 0.52,0.87 0.52,1.27 0,0.27 -0.1,0.75 -0.3,1.4 -0.22,0.77 -0.35,1.25 -0.37,1.45 -0.07,0.27 -0.15,0.67 -0.22,1.22 1.32,-1.45 3.07,-2.37 5.24,-2.79 0.57,-0.1 1.45,-0.25 2.67,-0.45 0.03,-0.72 0.03,-1.17 0.03,-1.4 0,-1.52 -0.12,-2.44 -0.4,-2.82 -0.05,-0.05 -0.25,-0.25 -0.62,-0.57 -0.22,-0.22 -0.35,-0.35 -0.35,-0.4 0,-0.22 0.25,-0.35 0.77,-0.35 0.3,0 0.6,0.1 0.87,0.27 0.55,0.32 1.05,0.72 1.52,1.2 0.3,0.3 0.45,0.57 0.45,0.82 0,0.17 -0.05,0.4 -0.12,0.7 -0.08,0.35 -0.12,0.6 -0.12,0.72 -0.05,0.3 -0.1,0.75 -0.12,1.37 0.12,-0.02 0.4,-0.15 0.87,-0.35 0.37,-0.17 0.65,-0.25 0.82,-0.25 0.4,0 0.8,0.12 1.17,0.35 0.45,0.27 0.67,0.57 0.67,0.95 0,0.6 -0.4,0.95 -1.22,1.07 -0.52,0.07 -1.3,0.17 -2.34,0.32 -0.03,0.67 -0.05,1.27 -0.05,1.77 0,0.57 0.07,1.45 0.15,2.59 0.1,1.17 0.12,2.02 0.12,2.57 1.6,1.12 2.69,2.14 3.32,3.02 0.3,0.42 0.45,0.87 0.45,1.4 0,0.95 -0.32,1.42 -0.97,1.42 -0.3,0.02 -0.57,-0.16 -0.85,-0.51 z m -6.38,-5.96 c -0.7,0 -1.32,0.3 -1.84,0.87 -0.25,0.27 -0.37,0.5 -0.37,0.7 0,0.37 0.27,0.55 0.82,0.55 1.3,0 2.49,-0.42 3.59,-1.3 -0.8,-0.54 -1.53,-0.82 -2.2,-0.82 z m 8.68,-10.62 c -0.32,0.02 -0.57,-0.07 -0.82,-0.32 -0.4,-0.4 -0.97,-0.87 -1.62,-1.57 -0.55,-0.55 -0.75,-0.87 -0.7,-0.95 0.08,-0.12 0.37,-0.15 0.85,-0.07 0.5,0.07 1.02,0.27 1.6,0.55 0.77,0.37 1.15,0.92 1.12,1.62 -0.01,0.44 -0.16,0.69 -0.43,0.74 z m 2.36,-1.64 c -0.32,0.05 -0.57,-0.05 -0.82,-0.3 -0.4,-0.4 -0.95,-0.92 -1.62,-1.6 -0.52,-0.55 -0.75,-0.87 -0.7,-0.95 0.07,-0.12 0.37,-0.12 0.85,-0.05 0.52,0.07 1.05,0.25 1.62,0.52 0.77,0.37 1.15,0.92 1.12,1.62 -0.02,0.48 -0.17,0.73 -0.45,0.76 z m 7.53,15.51 c -1.12,0.25 -2.09,0.4 -2.97,0.4 -0.6,0 -0.9,-0.1 -0.9,-0.3 -0.03,-0.12 0.22,-0.25 0.75,-0.32 1.77,-0.22 3.34,-0.87 4.69,-1.92 0.47,-0.37 0.87,-0.9 1.2,-1.62 0.3,-0.7 0.45,-1.37 0.45,-2.02 0,-0.82 -0.17,-1.52 -0.55,-2.09 -0.42,-0.65 -1.02,-0.97 -1.82,-0.97 -1.37,0 -2.84,0.8 -4.41,2.37 -0.47,0.47 -0.82,0.9 -1.1,1.32 -0.22,0.35 -0.45,0.52 -0.67,0.52 -0.32,-0.02 -0.72,-0.22 -1.15,-0.62 -0.35,-0.35 -0.6,-0.7 -0.77,-1.02 -0.17,-0.32 -0.25,-0.62 -0.25,-0.87 0,-0.42 0.1,-0.62 0.27,-0.62 0.12,-0.02 0.27,0.05 0.47,0.17 0.17,0.15 0.35,0.22 0.47,0.22 0.27,0 0.67,-0.15 1.15,-0.45 0.47,-0.27 1.17,-0.72 2.17,-1.2 1.25,-0.62 2.52,-0.85 3.76,-0.85 1.22,0 2.22,0.32 2.99,0.95 1.07,0.87 1.6,2.02 1.6,3.39 0,0.95 -0.22,1.75 -0.65,2.39 -1.04,1.61 -2.61,2.64 -4.73,3.14 z m 17,2.51 c -0.37,0.4 -0.77,0.6 -1.2,0.6 -0.82,0 -1.27,-0.37 -1.4,-1.12 -0.35,-2.37 -1,-4.24 -1.87,-5.66 -0.45,-0.57 -1.1,-1.47 -1.97,-2.64 -0.32,-0.42 -0.5,-0.92 -0.5,-1.47 0,-0.47 0.15,-0.87 0.42,-1.2 0.82,-1.02 1.42,-1.77 1.75,-2.22 0.65,-0.87 1.12,-1.67 1.52,-2.39 0.25,-0.47 0.4,-0.85 0.4,-1.1 0,-0.37 -0.15,-0.75 -0.45,-1.07 -0.32,-0.32 -0.47,-0.55 -0.47,-0.65 0,-0.12 0.12,-0.25 0.35,-0.32 0.22,-0.07 0.42,-0.12 0.6,-0.12 0.25,0 0.62,0.12 1.1,0.4 1.22,0.72 1.82,1.4 1.82,2.02 0,0.27 -0.22,0.67 -0.7,1.17 -0.77,0.87 -1.92,2.14 -3.46,3.86 -0.27,0.3 -0.7,0.75 -1.25,1.35 -0.12,0.17 -0.2,0.3 -0.2,0.42 0,0.15 0.1,0.35 0.32,0.57 0.12,0.15 0.32,0.35 0.6,0.62 3.29,3.22 4.94,5.83 4.94,7.85 0,0.48 -0.13,0.83 -0.35,1.1 z m 2.52,-10.92 c -0.32,0.05 -0.57,-0.05 -0.82,-0.3 -0.4,-0.4 -0.95,-0.92 -1.62,-1.6 -0.52,-0.55 -0.75,-0.87 -0.7,-0.95 0.08,-0.12 0.37,-0.15 0.85,-0.07 0.5,0.07 1.02,0.27 1.6,0.55 0.77,0.37 1.15,0.92 1.12,1.62 -0.01,0.48 -0.16,0.73 -0.43,0.75 z m 2.36,-1.64 c -0.32,0.05 -0.57,-0.05 -0.82,-0.3 -0.4,-0.4 -0.95,-0.92 -1.62,-1.6 -0.52,-0.55 -0.75,-0.87 -0.7,-0.95 0.08,-0.12 0.37,-0.12 0.85,-0.05 0.5,0.07 1.02,0.27 1.6,0.55 0.77,0.37 1.15,0.92 1.12,1.62 0,0.45 -0.15,0.7 -0.43,0.73 z m -49.07,22.43 c -0.22,0.07 -0.45,0.15 -0.65,0.2 -0.52,0.87 -1.12,1.75 -1.82,2.59 v 0.85 c 0.67,0.07 1.17,0.2 1.55,0.4 0.47,0.25 0.82,0.55 1.05,0.87 0.23,0.32 0.27,0.75 0.17,1.22 -0.12,0.62 -0.47,0.92 -1.05,0.92 -0.3,0 -0.55,-0.22 -0.72,-0.65 -0.03,-0.27 -0.1,-0.65 -0.22,-1.1 -0.22,-0.52 -0.5,-0.9 -0.8,-1.12 v 2.72 c 0,2.47 0,2.49 0.05,3.52 0,0.25 0.05,0.8 0.05,0.87 0.03,0.37 0.03,0.4 0.03,0.45 0,0.17 -0.03,0.4 -0.08,0.55 -0.1,0.45 -0.45,0.85 -1.02,1.15 -0.6,0.32 -1,0.4 -1.22,0.3 -0.1,-0.02 -0.15,-0.35 -0.15,-0.95 0,-0.07 0,-0.17 0.03,-0.32 0.02,-0.12 0.02,-0.22 0.02,-0.27 0.15,-2.32 0.22,-4.21 0.22,-5.68 0,-0.25 0,-0.77 0.03,-1.6 -0.32,0.27 -0.65,0.57 -1.02,0.85 -1.12,0.87 -2.27,1.6 -3.44,2.14 -0.37,0.17 -0.57,0.2 -0.65,0.07 -0.03,-0.07 0.12,-0.25 0.45,-0.5 2.17,-1.67 3.92,-3.49 5.24,-5.51 0.62,-0.92 1.12,-1.82 1.52,-2.69 -0.72,0.07 -1.82,0.2 -3.32,0.4 -0.45,0.05 -1.07,0.15 -1.9,0.32 l -0.65,-1.17 c 1.02,-0.02 1.85,-0.05 2.49,-0.1 l 3.32,-0.27 c 0.15,-0.15 0.47,-0.52 1,-1.15 0.32,0.32 0.77,0.82 1.37,1.5 0.35,0.42 0.52,0.72 0.5,0.85 -0.03,0.16 -0.16,0.26 -0.38,0.34 z m -2.2,-3.25 c -0.27,0.37 -0.62,0.55 -1.07,0.55 -0.5,0 -0.85,-0.22 -1.07,-0.7 -0.08,-0.17 -0.12,-0.4 -0.15,-0.67 -0.03,-0.37 -0.05,-0.57 -0.08,-0.65 -0.2,-0.72 -0.52,-1.27 -0.95,-1.62 -0.27,-0.2 -0.37,-0.37 -0.32,-0.5 0.03,-0.1 0.27,-0.12 0.72,-0.07 0.7,0.07 1.4,0.35 2.07,0.77 0.8,0.52 1.2,1.1 1.2,1.72 0,0.48 -0.12,0.85 -0.35,1.17 z m 13.67,1.87 c 0,0.52 0.05,1.37 0.1,2.54 0.05,1.15 0.07,1.99 0.07,2.57 0.03,0.07 0.05,0.62 0.05,0.7 0,0.25 -0.03,0.45 -0.1,0.57 -0.17,0.35 -0.42,0.6 -0.75,0.77 -0.57,0.27 -1,0.4 -1.27,0.32 -0.12,-0.02 -0.17,-0.1 -0.2,-0.22 v -0.47 c 0,-0.12 0,-0.42 0.03,-0.87 l -2.37,0.12 c 0.03,1.5 0.05,3.59 0.12,6.26 0.02,0.92 0.02,1.1 0.02,1.32 0,0.45 -0.15,0.92 -0.35,1.2 -0.25,0.37 -0.57,0.72 -0.95,1 -0.38,0.28 -0.7,0.37 -0.95,0.32 -0.17,-0.02 -0.27,-0.2 -0.3,-0.47 0,-0.07 0,-0.4 0.03,-1 0.07,-1.35 0.22,-3.37 0.22,-6.06 v -2.49 l -2.44,0.17 c 0.03,0.62 -0.02,1.05 -0.15,1.3 -0.15,0.32 -0.37,0.57 -0.65,0.75 -0.47,0.32 -0.82,0.42 -1.1,0.32 -0.08,-0.02 -0.08,-0.3 -0.05,-0.8 0.03,-0.4 0.08,-0.87 0.1,-1.4 0.03,-1.15 0.03,-2.27 0.03,-3.37 0,-0.92 -0.03,-1.82 -0.08,-2.69 l -0.15,-2.87 c 0.35,0.12 0.8,0.32 1.35,0.57 0.5,0.22 0.9,0.42 1.17,0.57 l 2.07,-0.15 V 45.8 c 0,-1.07 0,-2.37 -0.08,-3.86 0.47,0.17 1.15,0.42 2.07,0.82 0.57,0.25 0.82,0.5 0.82,0.67 0,0.27 -0.27,0.57 -0.8,0.9 l 0.02,2.79 c 0.92,-0.05 1.67,-0.1 2.29,-0.12 0.2,-0.27 0.5,-0.67 0.87,-1.22 0.42,0.32 0.9,0.7 1.4,1.12 0.5,0.42 0.75,0.77 0.72,1.02 0.03,0.2 -0.24,0.47 -0.81,0.82 z m -6.49,-0.59 -2.62,0.17 c 0.02,2.14 0.02,4.11 0.05,5.93 l 2.52,-0.12 v -2.72 c -0.05,0 -0.32,0.02 -0.82,0.07 -0.17,0.02 -0.45,0.05 -0.85,0.1 -0.08,-0.17 -0.2,-0.45 -0.35,-0.85 0.67,0 1.35,-0.02 2.02,-0.07 z m 4.42,5.73 v -6.01 c -0.62,0.02 -1.42,0.07 -2.39,0.15 v 2.49 c 0.6,-0.05 1.07,-0.12 1.42,-0.25 0.32,0.5 0.47,0.77 0.45,0.85 -0.02,0.08 -0.22,0.1 -0.55,0.12 -0.27,0.02 -0.7,0.05 -1.32,0.07 v 2.67 z m 14.52,-3.86 c -0.17,0.05 -0.4,0.12 -0.7,0.2 -0.77,1.17 -1.5,2.19 -2.22,3.04 -0.02,1.52 -0.02,2.79 0,3.81 0.03,0.42 0.03,1.8 0.03,4.06 0,0.85 0,1.3 -0.03,1.35 -0.1,0.3 -0.32,0.57 -0.65,0.82 -0.7,0.52 -1.25,0.72 -1.62,0.62 -0.12,-0.02 -0.2,-0.17 -0.2,-0.42 0.03,-0.1 0.03,-0.27 0.03,-0.5 0.03,-0.57 0.15,-1.6 0.2,-3.09 0.08,-1.94 0.08,-3.47 0.1,-4.54 -0.37,0.3 -0.75,0.6 -1.15,0.87 -1.35,0.97 -2.42,1.57 -3.19,1.87 -0.27,0.1 -0.47,0.12 -0.55,0 -0.07,-0.07 0.03,-0.22 0.3,-0.45 0.97,-0.77 1.75,-1.45 2.34,-1.99 1.07,-1.02 1.84,-1.87 2.37,-2.57 1,-1.35 1.79,-2.67 2.39,-3.99 -0.72,0.08 -1.82,0.17 -3.24,0.37 -0.45,0.05 -1.12,0.17 -2.02,0.35 -0.17,-0.27 -0.37,-0.67 -0.6,-1.15 0.55,0 1.27,-0.02 2.19,-0.05 0.2,-0.02 1.47,-0.12 3.79,-0.32 0.02,-0.02 0.35,-0.42 0.97,-1.25 0.32,0.3 0.82,0.75 1.47,1.35 0.42,0.42 0.65,0.72 0.65,0.92 -0.01,0.29 -0.24,0.51 -0.66,0.69 z m -1.77,-4.42 c 0,0.42 -0.15,0.82 -0.45,1.15 -0.3,0.32 -0.67,0.5 -1.1,0.5 -0.65,0 -1.05,-0.4 -1.2,-1.2 -0.17,-0.8 -0.37,-1.42 -0.62,-1.87 -0.08,-0.12 -0.2,-0.25 -0.37,-0.42 -0.2,-0.17 -0.3,-0.3 -0.27,-0.37 0.03,-0.12 0.3,-0.17 0.8,-0.12 0.57,0.05 1.15,0.2 1.67,0.45 0.72,0.35 1.17,0.75 1.4,1.2 0.09,0.21 0.14,0.43 0.14,0.68 z m 2.72,11.5 c -0.22,0.37 -0.52,0.55 -0.9,0.55 -0.38,0 -0.62,-0.1 -0.77,-0.3 0,0 -0.08,-0.22 -0.25,-0.65 -0.12,-0.32 -0.32,-0.87 -0.65,-1.62 -0.12,-0.22 -0.32,-0.47 -0.65,-0.75 -0.22,-0.17 -0.35,-0.32 -0.32,-0.45 0.03,-0.17 0.35,-0.2 0.97,-0.1 0.87,0.15 1.55,0.4 2.02,0.75 0.57,0.45 0.85,0.95 0.85,1.5 0,0.42 -0.1,0.77 -0.3,1.07 z m 12.09,3.19 c -0.12,0.02 -0.47,0.05 -1,0.08 -0.65,0.02 -1.55,0.05 -2.72,0.07 -1.79,0.02 -4.39,0.15 -7.78,0.37 -0.77,0.05 -1.79,0.15 -3.02,0.32 l -0.52,-1.12 c 1.25,0 2.24,-0.02 3.02,-0.05 l 3.12,-0.15 v -8.18 l -1.55,0.1 c -0.15,0.02 -1,0.12 -2.57,0.3 l -0.47,-1.1 c 1.12,0 2.67,-0.05 4.59,-0.15 v -5.66 c 0,-0.32 -0.02,-1.22 -0.1,-2.74 0.42,0.12 1.1,0.3 2.02,0.62 0.42,0.15 0.72,0.3 0.87,0.37 0.27,0.12 0.4,0.27 0.4,0.45 0,0.22 -0.27,0.52 -0.82,0.9 l 0.02,5.96 1.6,-0.1 1.15,-1.9 c 0.6,0.37 1.25,0.85 1.94,1.42 0.47,0.4 0.7,0.7 0.65,0.9 -0.02,0.17 -0.3,0.25 -0.82,0.27 -0.57,0.02 -1.5,0.05 -2.77,0.12 -0.32,0.02 -0.9,0.05 -1.75,0.1 v 8.18 c 0.92,-0.05 1.8,-0.1 2.57,-0.12 l 1.52,-2.54 c 0.5,0.4 1.2,1 2.12,1.82 0.52,0.47 0.77,0.85 0.75,1.07 0,0.21 -0.15,0.34 -0.45,0.39 z"
     id="path4"
     inkscape:connector-curvature="0"
     style="fill:#ffffff" />
  <path
     d="m 17.97,12.29 h 150 m -150,60 h 150"
     stroke-miterlimit="10"
     id="path6"
     inkscape:connector-curvature="0"
     style="fill:none;stroke:#ffffff;stroke-miterlimit:10" />
  <path
     d="M 56.22,3.79 H 30.96 C 14.12,3.79 0,0.24 0,0.24 l 1.17,4.15 22.8,1.4 H 63.22 L 86.02,4.4 87.19,0 C 87.18,0 73.06,3.79 56.22,3.79 Z"
     id="path8"
     inkscape:connector-curvature="0"
     style="fill:#a0a0a0" />
  <path
     d="M 56.01,5.79 H 31.04 C 14.4,5.79 0.45,2.2 0.45,2.2 L 1.6,7.79 c 0,0 12.8,3 22.53,3 h 38.79 c 9.73,0 22.53,-2.98 22.53,-2.98 L 86.6,2.49 c 0,0 -13.95,3.3 -30.59,3.3 z"
     id="path10"
     inkscape:connector-curvature="0"
     style="fill:#282926" />
  <path
     class="st4"
     d="m 4.62,20.54 h 76.77 v 6.01 H 4.62 Z M 64.97,9.29 C 56.96,9.42 48.74,9.5 43.53,9.53 38.31,9.5 30.1,9.43 22.09,9.29 12.11,9.13 3.5,7.99 3.5,7.99 l 0.86,4.82 c 3.74,0.86 21.89,0.98 21.89,0.98 h 34.56 c 0,0 18.15,-0.12 21.89,-0.98 l 0.86,-4.89 c 0,0 -8.6,1.2 -18.59,1.37 z"
     id="path12"
     inkscape:connector-curvature="0"
     style="fill:#d2371d" />
  <path
     class="st4"
     d="m 15.73,13.23 h 9.99 v 2.64 h -9.99 z"
     id="path14"
     inkscape:connector-curvature="0"
     style="fill:#d2371d" />
  <path
     class="st4"
     d="m 17.21,14.79 -3.9,50 h 8.38 l 3.18,-50 z"
     id="path16"
     inkscape:connector-curvature="0"
     style="fill:#d2371d" />
  <path
     class="st4"
     d="m 13.5,21.19 -0.33,-3.56 5.09,1.16 h 4.18 l 5.35,-1.05 -0.42,3.53 z"
     id="path18"
     inkscape:connector-curvature="0"
     style="fill:#d2371d" />
  <path
     class="st5"
     d="M 22.67,73.09 H 10.95 l 0.93,-9.38 h 11.26 z"
     id="path20"
     inkscape:connector-curvature="0"
     style="fill:#6d726c" />
  <path
     class="st4"
     d="m 70.932,15.878 h -9.99 v -2.64 h 9.99 z"
     id="path22"
     inkscape:connector-curvature="0"
     style="fill:#d2371d" />
  <path
     class="st4"
     d="m 69.46,14.79 3.9,50 h -8.38 l -3.18,-50 z"
     id="path24"
     inkscape:connector-curvature="0"
     style="fill:#d2371d" />
  <path
     class="st4"
     d="m 73.16,21.19 0.34,-3.56 -5.1,1.16 h -4.17 l -5.35,-1.05 0.42,3.53 z"
     id="path26"
     inkscape:connector-curvature="0"
     style="fill:#d2371d" />
  <path
     class="st5"
     d="M 64,73.09 H 75.72 L 74.78,63.71 H 63.53 Z"
     id="path28"
     inkscape:connector-curvature="0"
     style="fill:#6d726c" />
  <path
     stroke-miterlimit="10"
     d="M 33.58,2.61 H 53.1 V 29.35 H 33.58 Z"
     id="path30"
     inkscape:connector-curvature="0"
     style="fill:#191919;stroke:#beb35a;stroke-width:1.28299999;stroke-miterlimit:10" />
  <path
     d="m 48.06,9.74 c 0.55,0 1.44,-0.51 2.44,0.48 0.53,0.53 0.86,0.89 0.89,0.95 0,0.04 0.02,0.12 0.02,0.2 0,0.26 -0.13,0.43 -0.42,0.49 -0.11,0.02 -0.16,0.02 -0.38,-0.02 -0.91,-0.2 -1.68,-0.08 -2.44,0.37 -0.2,0.12 -0.22,0.14 -0.4,0.39 a 22.395,22.395 0 0 0 -3.41,6.21 c -0.11,0.3 -0.11,0.32 -0.11,0.55 0,0.49 0.2,0.81 0.73,1.14 0.29,0.16 0.51,0.26 0.84,0.37 0.2,0.06 0.47,0.2 0.89,0.45 0.75,0.45 1.29,0.93 1.53,1.4 0.09,0.16 0.11,0.2 0.11,0.32 0,0.12 -0.02,0.18 -0.07,0.26 -0.11,0.22 -0.38,0.41 -0.73,0.49 -0.49,0.1 -1.15,0.12 -1.57,0.06 -0.29,-0.04 -0.71,-0.18 -0.95,-0.3 -0.86,-0.41 -1.75,-1.18 -2.48,-2.17 -0.31,-0.43 -0.62,-1.1 -0.75,-1.7 -0.04,-0.24 -0.04,-0.28 -0.04,-0.77 0,-0.43 0,-0.57 0.02,-0.73 0.09,-0.47 0.22,-0.77 0.49,-1.32 0.55,-1.16 1.24,-2.39 1.99,-3.47 0.09,-0.12 0.18,-0.22 0.16,-0.22 -0.02,0 -1.33,0.41 -1.73,0.55 -0.95,0.32 -2.15,0.75 -3.1,1.16 -0.47,0.2 -0.62,0.24 -1,0.24 -0.53,0 -0.89,-0.12 -1.31,-0.47 -0.31,-0.24 -0.91,-0.81 -1.13,-1.03 -0.42,-0.45 -0.69,-0.91 -0.78,-1.36 -0.02,-0.18 -0.02,-0.22 0.2,-0.45 l 0.18,-0.16 0.18,0.1 c 0.4,0.22 0.82,0.39 1.24,0.47 0.44,0.08 1.11,0.06 1.57,-0.04 0.11,-0.02 1.88,-0.63 3.94,-1.34 l 3.77,-0.18 0.4,-0.24 c 0.22,-0.14 0.55,-0.34 0.75,-0.45 0.32,-0.21 0.39,-0.23 0.46,-0.23 z m 2.08,3.25 h 0.31 l 0.2,0.12 c 0.29,0.16 0.6,0.37 0.91,0.63 l 0.27,0.22 v 0.16 c 0,0.18 -0.07,0.32 -0.16,0.37 -0.02,0 -0.09,0.02 -0.18,0.04 -0.35,0.06 -0.69,0 -0.98,-0.14 -0.18,-0.08 -0.44,-0.28 -0.58,-0.45 -0.09,-0.1 -0.2,-0.18 -0.27,-0.18 -0.13,0 -0.27,0.2 -0.27,0.39 0,0.14 0.04,0.22 0.27,0.37 0.24,0.16 0.38,0.28 0.47,0.45 0.07,0.12 0.09,0.16 0.09,0.43 0,0.18 -0.02,0.32 -0.04,0.34 -0.02,0.04 -0.2,0.12 -0.44,0.16 -0.16,0.02 -0.53,0.02 -0.62,-0.02 -0.02,0 -0.16,-0.1 -0.27,-0.24 -0.42,-0.49 -1.02,-1.12 -1.46,-1.52 -0.13,-0.12 -0.2,-0.2 -0.2,-0.22 0.02,-0.04 0.38,-0.2 0.58,-0.24 0.11,-0.02 0.24,-0.04 0.33,-0.04 0.13,0 0.18,0.02 0.27,0.08 0.22,0.16 0.53,0.22 0.75,0.2 h 0.11 v -0.39 l 0.02,-0.39 0.09,-0.04 c 0.07,-0.02 0.18,-0.04 0.29,-0.06 0.11,-0.03 0.33,-0.03 0.51,-0.03 z"
     id="path32"
     inkscape:connector-curvature="0"
     style="fill:#beb35a" />
</svg>
