<svg xmlns="http://www.w3.org/2000/svg" viewBox="0 0 71 71"><path fill="#FFF" d="M65.3 71H5.7C2.5 71 0 68.5 0 65.3V5.7C0 2.5 2.5 0 5.7 0h59.7C68.5 0 71 2.5 71 5.7v59.7c0 3.1-2.5 5.6-5.7 5.6z"/><path fill="#DF0012" d="M35.6 28.8c-.7.2-1.5.2-2.3-.1-1.4-.7-2-2.5-1.3-3.9.4-.7 1-1.2 1.7-1.5l4.7-1.5c-1.2-2.6-3.2-4.9-5.9-6.5-7-4.2-16.1-1.8-20.3 5.2s-1.8 16.1 5.2 20.3 16.1 1.8 20.3-5.2c1.5-2.5 2.2-5.4 2-8.1l-4.1 1.3z"/><path fill="#0068B6" d="M53.7 14c-4-2.4-9.2-1-11.6 3s-1 9.2 3 11.6c.3.2.7.4 1 .5-.1-.7.1-1.4.4-2 .9-1.6 2.9-2.1 4.5-1.2 1.1.7 1.7 1.9 1.6 3.2 1.6-.7 3.1-1.9 4-3.5 2.4-4.1 1.1-9.3-2.9-11.6z"/><path fill="#009144" d="M35.8 52.4c-1.6-.9-2.1-2.9-1.2-4.5.3-.5.8-.9 1.3-1.2-.3-.3-.7-.5-1.1-.8-4-2.4-9.2-1-11.6 3s-1 9.2 3 11.6c4 2.4 9.2 1 11.6-3 .9-1.6 1.3-3.3 1.1-5-.9.4-2.1.4-3.1-.1z"/><circle fill="#FBC600" cx="49.1" cy="42.1" r="10.6"/></svg>